<?xml version="1.0" standalone="no"?>
<!DOCTYPE svg PUBLIC "-//W3C//DTD SVG 20010904//EN"
 "http://www.w3.org/TR/2001/REC-SVG-20010904/DTD/svg10.dtd">
<svg version="1.0" xmlns="http://www.w3.org/2000/svg"
 width="512.000000pt" height="512.000000pt" viewBox="0 0 512.000000 512.000000"
 preserveAspectRatio="xMidYMid meet">

<g transform="translate(0.000000,512.000000) scale(0.100000,-0.100000)"
fill="#000000" stroke="none">
<path d="M2430 3854 c-14 -2 -59 -9 -100 -15 -74 -11 -241 -60 -290 -84 -214
-106 -276 -149 -425 -292 -38 -36 -145 -167 -145 -177 0 -3 -12 -22 -26 -43
-68 -100 -138 -275 -170 -428 -28 -131 -26 -384 3 -515 57 -256 176 -471 361
-654 143 -142 323 -251 510 -310 169 -53 217 -60 397 -60 178 0 246 11 410 66
451 153 784 548 861 1023 19 119 14 338 -10 455 -48 233 -171 467 -338 646
-53 57 -182 158 -266 208 -118 71 -271 130 -422 162 -65 15 -303 27 -350 18z
m430 -649 l0 -315 313 -2 312 -3 3 -314 c2 -245 -1 -316 -10 -323 -7 -4 -137
-5 -289 -1 -151 3 -287 3 -302 -1 l-27 -6 -2 -308 -3 -307 -295 -5 c-162 -3
-305 -3 -317 -1 l-23 3 -2 312 -3 311 -305 0 c-168 0 -311 4 -317 8 -10 6 -13
79 -13 307 0 164 3 305 6 314 5 14 43 16 320 16 l314 0 0 315 0 315 320 0 320
0 0 -315z"/>
</g>
</svg>
